<?xml version="1.0" encoding="UTF-8"?>
<!DOCTYPE svg PUBLIC "-//W3C//DTD SVG 1.0//EN" "http://www.w3.org/TR/2001/REC-SVG-20010904/DTD/svg10.dtd">
<!-- Creator: CorelDRAW 2020 (64 Bit) -->
<svg xmlns="http://www.w3.org/2000/svg" xml:space="preserve" width="1013.88mm" height="270mm" version="1.0" style="shape-rendering:geometricPrecision; text-rendering:geometricPrecision; image-rendering:optimizeQuality; fill-rule:evenodd; clip-rule:evenodd"
viewBox="0 0 101388.32 27000"
 xmlns:xlink="http://www.w3.org/1999/xlink"
 xmlns:xodm="http://www.corel.com/coreldraw/odm/2003">
 <defs>
  <style type="text/css">
   <![CDATA[
    .fil0 {fill:#EE3537}
    .fil1 {fill:#ED3237;fill-rule:nonzero}
    .fil2 {fill:black;fill-rule:nonzero}
   ]]>
  </style>
 </defs>
 <g id="Calque_x0020_1">
  <metadata id="CorelCorpID_0Corel-Layer"/>
  <g id="_1583248830672">
   <path class="fil0" d="M2972.68 13800.88l0 17.31 0 248.09c0.68,278.09 5.65,553.53 35.16,834.14 69.46,660.51 168.72,1317.91 363.79,1947.87 14.38,46.44 26.22,96.07 42.33,143.95 15.69,46.64 33.12,99.41 48.67,146.08 32.82,98.51 62.42,193.49 100.19,289.31 37.48,95.09 69.16,180.64 106.47,274.56 37.37,94.06 76.7,184.07 115.89,273.61 77.94,178.08 160.42,354.07 245.75,524.77 125.96,251.97 262.45,502.47 407.97,743.58l296.4 474.12c166.21,249.39 452.35,668.55 648.31,892.7l131 156.88c79.12,83.1 144.75,175.93 224.17,258.45l381.14 389.35c16.52,16.55 29.21,31.37 46.94,46.2l639.33 520.63c123.61,83.72 316.83,235.51 467.23,235.51 105.29,0 235.62,-446.35 260.61,-535.32 67.25,-239.44 120.36,-493.84 120.36,-751.81 0,-338.05 -279.38,-580.05 -493.15,-793.86 -100.89,-100.91 -298.58,-288.11 -405.51,-373.45l-946.95 -983.52c-17.8,-23.04 -40.63,-50.69 -61.43,-74.04 -21.12,-23.71 -38.68,-46.44 -57.02,-69.99 -377.61,-484.75 -556.05,-720.23 -900.13,-1292.86l-138.53 -250.96c-15.81,-31.65 -26.42,-53.2 -42.23,-84.78 -146.18,-291.96 -451.4,-998.2 -195.25,-1341.29 124.71,-167.03 519.39,-353.93 735.44,-441.43 152.77,-61.87 309.29,-145.82 436.42,-249.39 406.9,-331.46 544.84,-881.42 687.38,-1370.17 30.36,-104.11 55.63,-206.71 86.67,-311.3 101.32,-341.43 226.71,-903.87 315.62,-1259.33 53.32,-213.14 99.62,-414.51 152.33,-626.69 52.65,-211.86 112.04,-415.6 166.03,-621.44 106.43,-405.72 228.24,-816.84 360.8,-1214.16l194.69 -584.31c125.85,-381.17 296.08,-749.74 460.25,-1114.68l208.16 -477.69c11.6,-27.61 23.17,-47.46 29.03,-72.59 47.33,11.03 172.15,142.57 217.87,188.54l287.59 262.76c74.5,62.29 136.55,141.08 212.89,201.99 30.95,24.7 43.04,36.17 71.1,64.37 119.33,119.95 320.09,287.14 436.17,402.06l516.47 457.22c187.08,164.52 484.52,370.68 738.45,370.68 240.9,0 401.95,-52.1 640.79,-87.3 162.94,-24.02 346.67,-34.37 511.04,-47.73l686.53 -33.09c98.73,-11.09 221.56,5.33 314.32,-7.39 126.89,-17.39 1372.57,5.53 1614.99,5.86l1078.6 72.79c93.1,12.95 162.79,21.68 248.25,39.61 160.52,33.66 163.65,48.79 340.66,48.79 331.34,0 703.99,-343.53 951.8,-538.35l544.67 -471.35c13.4,-12.47 20.11,-21.78 33.83,-33.91l71.8 -63.67c124.57,-115.92 406.48,-345.59 503.77,-444.52l366.21 -319.61 584.24 1329.37 481.47 1440.64c255.69,802.88 472.16,1695.65 686.8,2513.92 81.76,311.7 181.38,694.08 282.6,995.98l236.94 728.35c111.04,311.28 148.93,377.51 410.08,555.18l91.37 61.02c244.1,163.9 490.42,248.68 748.36,377.71 146.52,73.3 270.31,143.85 338.7,296.31 61.22,136.46 34.87,403.18 7.24,566.25 -77.73,458.63 -245.77,786.74 -439.11,1161.22 -166.65,322.79 -413.73,671.94 -642.21,958.09l-216.39 266.24c-14.72,18.84 -21.8,22.92 -36.22,39.98 -236.47,279.57 -475.11,515.63 -736.84,778.75 -29.67,29.83 -53.85,44.82 -84.8,76.07 -131.56,132.83 -382.5,337.71 -503.73,461.5 -30.99,31.64 -54.9,46.06 -84.76,76.11l-503.62 461.61c-28.46,28.89 -54.15,52.26 -86.76,74.1 27.82,58.01 202.27,802.58 231.57,903.07 42.57,145.96 82.24,289.83 136.04,431.29 188.77,496.42 209.97,381.99 440.27,201.95 24.92,-19.49 27.71,-23.76 49.23,-43.9 118.34,-110.77 240.7,-215.21 355.64,-330.19l869.89 -891.24c17.84,-23.38 28.55,-31.08 48.77,-52.83 187.66,-201.74 404.3,-486.64 566.83,-703.23 59.17,-78.84 108.56,-150.5 166.86,-231.1 56.39,-77.97 105.16,-154.05 157.26,-232.22 51.98,-77.98 103.83,-154.91 152.79,-236.7l219.35 -364.89c25.06,-43.69 44.73,-86.41 71.67,-131.54 50.47,-84.55 86.54,-168.81 136.78,-252.72 72.95,-121.87 257.32,-526.55 313.24,-660.5 21.3,-51.03 37.57,-93.36 59.95,-143.27 116.62,-260.19 233.31,-584.28 313.07,-855.42 157.17,-534.3 298.19,-1019.97 376.97,-1587.5l108.68 -958.26c1.84,-35.74 -1.88,-62.25 3.54,-98.07 9.22,-60.95 -0.64,-126.08 8.47,-186.3 1.98,-13.12 3.6,-30.47 4.89,-51.33l0 -481.23c-6.58,-267.36 -19.32,-547 -25.87,-630.64 -36.74,-469.33 -103.98,-944.13 -211.18,-1397.68l-129.93 -513.59c-71.51,-247.53 -146.01,-488.21 -237.71,-727.59 -104.1,-271.74 -213.41,-528.61 -337.97,-788.18 -19.41,-40.46 -30.74,-70.36 -50.68,-110.2 -440.5,-879.87 -975.47,-1661.19 -1608.23,-2413.67l-228.18 -254.44c-32.82,-32.53 -46.75,-48.58 -76.59,-84.28 -73.07,-87.43 -519.95,-523.48 -608.32,-593.99l-478.64 -410.38c-358.85,-290.61 -739.05,-556.29 -1132.21,-798.22l-1048.94 -559.74c-74.96,-37.54 -146.31,-62.83 -223.01,-98.71 -508.47,-237.8 -1155.92,-434.53 -1684.16,-567.93 -616.25,-155.62 -1046.02,-198.83 -1664.01,-266.3l-303.33 -18.38c-108.36,0.51 -198.2,-8.27 -313.44,-8.27l-364.04 0c-115.24,0 -205.09,8.78 -313.44,8.27l-303.32 18.4c-637.35,68.45 -1028.85,111.32 -1662.22,268.09 -590.04,146.03 -1135.7,329.23 -1682.88,569.2 -223.27,97.92 -444.01,200.7 -657.8,315.86l-809.76 477.19c-69.29,40.89 -129.43,85.21 -192.04,129.69l-562.44 411.25c-135.91,102.24 -265.45,214.9 -392.16,327.52 -19.45,17.29 -26.67,18.71 -46.58,38.09l-169.34 152.4c-32.09,32.26 -48.08,48.78 -83.68,77.19l-444.95 444.09c-85.13,101.86 -187.57,194.09 -268.51,298.77l-708.86 899.88 -566.38 889.99c-96.83,168.25 -196.94,344.07 -284.68,519.7l-211.58 440.4c-18.61,39.93 -31.66,71.08 -48.76,112.12 -33.07,79.41 -63.27,145.63 -95.52,226.24l-176.65 466.87c-222.54,574.79 -411.01,1513.74 -490.94,2091.66 -51.73,373.97 -88.32,824.1 -88.32,1207.25z"/>
   <path class="fil0" d="M11006.93 21388.13l2861.51 0c86.61,-0.11 140.78,8.52 228.58,8.47 189.47,-0.11 370.8,14.22 567.56,16.6l553.55 39.08c34.64,5.02 80.37,7.41 107.99,10.54 43.34,4.9 65.47,6.77 107.76,10.76 130.75,12.35 280.15,37.04 397.11,68.54 72.93,19.64 100.52,36.57 125.58,111.49 123.97,370.66 121.5,948.64 121.5,1368.83 0,240.68 -2.03,537.34 -210.31,644.9 -95.58,49.37 -210.86,74.55 -335.09,96.7 -127.91,22.81 -238.85,40.69 -372.59,59.19l-1223.97 71.35c-74.47,-0.39 -122.96,8.57 -203.12,8.52 -124.63,-0.07 -699.3,5.96 -759.63,-2.31 -92.76,-12.72 -215.59,3.69 -314.32,-7.39 -147.16,-16.53 -447.11,-15.55 -618,-33.9 -92.36,-9.92 -203.65,-18.29 -291.68,-30.03 -244.63,-32.62 -536.11,-89.02 -734.14,-239.51 -252.69,-192.02 -214.15,-672.7 -163.26,-1052.77l154.97 -1149.06zm2561.13 2963.77l-554.69 0c-910.28,0 -1802.48,-131.51 -2648.78,-390.6 -77.33,-23.67 -156.67,-47.27 -230.74,-74.06 -75.14,-27.17 -146.59,-54.17 -224.39,-80.41 -76.74,-25.88 -146.21,-55 -220.71,-84.08 -145.19,-56.68 -292,-111.13 -431.46,-178.13l-307.64 -141.09c-231.04,-116.67 -470.13,-233.56 -678.53,-388.27 -69.63,-51.68 -195.91,-139.33 -249.13,-208.08 -25.05,-32.36 -45.24,-50 -65.63,-86.78 -51.56,-93 -37.02,-130.13 -14.84,-240.61 49.11,-244.63 114.59,-486.5 182.16,-723.88 45.29,-159.15 86.47,-309.67 137.17,-464.02 51.97,-158.24 89.08,-310.55 141.82,-467.84l105.74 -351.5c10.04,-32.5 22.04,-82.22 34.91,-109.04 -40.66,-10.86 -87.85,-56.17 -122.1,-81.1l-702.68 -508.08c-140.83,-111.37 -357.06,-291.81 -485.21,-420.74 -21.5,-21.63 -28.42,-24.09 -50.54,-42.59 -38.73,-32.38 -64.07,-68.57 -104.09,-99.12 -72.72,-55.51 -425.24,-412.76 -510.08,-497.49l-486.75 -520.83c-91.87,-90.4 -196.62,-224.81 -278.93,-322.22 -137.12,-162.29 -442.84,-559.13 -442.84,-751.03 0,-87.26 102.44,-114.2 186.44,-118.36 93.85,-4.65 182.57,-9.15 287.77,-8.55 131.28,0.75 269.49,-13.39 372.3,-76.41 225.13,-138 -219.72,-407.94 -334.85,-477.82 -137.07,-83.18 -562.46,-264.81 -562.46,-436.63 0,-156.01 305.3,-347.63 426.69,-428.47 37.21,-24.78 64.43,-42.96 101.6,-67.74l481.32 -356.89c27.75,-27.48 50.83,-55.65 75.3,-85.58 153.41,-187.66 239.91,-446.08 317.35,-681.78 81.89,-249.22 144.59,-539.42 199.94,-799.24l240.03 -1089.38c121,-534.13 263.12,-1064.91 415.25,-1591.55 133.18,-461.05 245.22,-810.75 406.15,-1261.93 52.31,-146.66 446.65,-1145.09 451.86,-1207.75 31.45,8.4 44.82,33.16 67.73,50.81l798.34 683.36c15.67,13.26 17.43,11.81 33.31,25.96 11.01,9.81 14.29,14.98 25.95,24.85 15.67,13.26 17.43,11.81 33.31,25.96 129.58,115.46 262.24,231 401.96,334.66 403.61,299.42 574.98,417.56 1110.83,310.23 352.88,-70.67 594.85,-128.43 981.97,-160.97l350.16 -30.83c33.72,-4.6 65.58,-0.06 98.83,-2.76 143.83,-11.7 308.31,-25.73 448.95,-25.15 61.93,0.25 124.97,1.3 186.78,0.53 43.67,-0.54 46.63,-6.81 84.29,-8.84 29.1,-1.58 63.47,0.03 93.16,0.04l499.5 -0.01c74.76,-0.09 117.84,8.98 186.14,8.59 61.5,-0.35 143.57,-4.58 202.85,0.33l474.56 24.94c204.73,10.22 422.66,36.73 626.48,59.28 57.28,6.34 117,16.44 170.78,23.95 114.89,16.05 229.23,35.88 335.55,62.36 104.25,25.96 208.71,57.37 314.76,83.16 98.71,24 227.97,50.71 347.21,50.71 268.19,0 503.97,-170.72 660.35,-287.91 45.56,-34.15 89.1,-66.63 134.34,-102.72l837.27 -695.24c15.61,-13.92 17.57,-12.89 33.22,-26.05l544.45 -454.64c27.35,57.03 139.84,431.71 164.14,504.78l160.65 508.28c140.88,431.51 359.4,1085.02 479.51,1518.81 47.84,172.79 98.22,343.36 149.42,519.51 199.22,685.52 389.25,1435.43 525.62,2141.66 18.79,97.29 38.14,187.56 54.14,284.56 43.41,263.27 115.71,546.52 203.03,787.67 126.74,349.97 323.33,533.62 611.97,725.83 137.49,91.56 267.86,171.72 398.23,270.64 294.27,223.27 450.04,404.96 99.48,615.03 -81.24,48.68 -188.59,106.38 -278.54,144.78 -142.24,60.72 -285.84,133.14 -394.17,240.85 -48.15,47.87 -82.38,92.18 -82.38,163.17 0,120.28 285.12,161.65 423.11,161.08 416.99,-1.7 619.56,-8.3 360.69,428.13 -52.04,87.74 -97.24,155.03 -156.09,233.4 -29.02,38.64 -56.24,71.8 -84.71,110.03 -85.87,115.29 -208.08,262.57 -308,369.37l-93.36 101.37c-20.16,20.88 -23.01,30.49 -42.06,51.09l-330.21 347.14c-161.79,183.76 -791.34,799.29 -1034.38,989.22 -109.56,85.63 -213.59,177.3 -326.63,257.58 -185.08,131.45 -431.74,233.42 -431.74,525.04 0,116.04 21.4,246.74 41.63,347.9 56,280.06 133.77,565.61 202.18,839.32 92.84,371.39 194.62,744.84 281.09,1116.06 -52.62,27.85 -95.63,56.43 -148.73,88.34 -285.77,171.79 -562.79,360.66 -861.55,510.05 -945.28,472.7 -1931.88,750.2 -2996.6,906.44 -139.01,20.4 -271.13,37.72 -411.66,53.98 -142.1,16.44 -501.48,57.97 -626.98,58.78l-436.89 20.29c-13.34,2.02 -30.29,3.63 -49.97,4.89zm1553.35 -9780.44c0,-365.54 122.6,-625.08 361.92,-865.85 137.84,-138.68 372.86,-268.87 577.66,-302.86 185.31,-30.76 338.82,-27.25 516.6,17.06 354.63,88.37 649.59,319.75 815.6,649.16 190.45,377.92 142.88,854.33 -104.41,1196.93 -82.37,114.11 -184.22,197.87 -295.06,280.7 -160.71,120.09 -441.03,218.84 -653.2,218.84 -224.61,0 -360.44,-23.11 -544.66,-115.72 -395.03,-198.59 -674.45,-647.76 -674.45,-1078.26zm-4605.51 1177.04c-249.37,0 -486.7,-80.23 -666.51,-214 -295.85,-220.11 -493.34,-590.13 -493.34,-963.04 0,-158.72 -6.54,-222.35 52.01,-379.85 75.67,-203.57 207.8,-370.21 364.84,-515.73 73.7,-68.3 259.21,-194.41 352.34,-231.87 360.09,-144.82 580.88,-184.74 945.85,38.66 58.3,35.68 119.01,82.74 170.27,126.07 275.5,232.88 552.91,585.44 552.91,962.72 0,196.04 -162.95,489.04 -275.74,638.74 -234.2,310.81 -595.73,538.3 -1002.63,538.3zm-2988.5 -1778.26c0,-446.33 86.84,-944.68 182.68,-1375.37l126.99 -575.82c76.73,-352.4 188.31,-769.35 298.82,-1115.25 72.06,-225.54 142.6,-442.81 226.07,-663.01 18.66,-49.24 31.81,-79.39 50.68,-127.13 34.31,-86.78 74.74,-163.41 113.68,-241.95l186.32 -347.12c9.44,-19.1 16.69,-35.39 28.99,-55.68 15.28,-25.19 23.05,-31.86 30.27,-62.87 52.54,35.19 109.87,113.68 163.35,158.39 86.95,72.7 165.26,156.83 245.06,237.56 30.24,30.59 53.98,44.94 84.77,76.1 55.36,56.02 105.17,105.22 160.82,160.93l658.23 637.21c45.41,-21.8 746.75,-151.93 816.27,-165.83 555.83,-111.19 1088.53,-227.75 1650.87,-321.79 664.5,-111.12 1126.16,-112.78 1790.08,-2.33 551.06,91.67 1089.3,203.01 1635.92,311.33 85.24,16.89 731.3,154.26 820.41,161.68l993.06 -945.87c91.01,-77.12 272.32,-238.34 386.9,-265.04 94.66,63.4 186.32,343.32 231.02,454.83 83.75,208.95 152,428.08 222.95,640.72 268.69,805.31 584.35,2139.48 679.77,2969.76 13.25,115.3 51.23,453.97 14.63,572.09 -12.57,40.6 -12.13,25.86 -30.85,53.82 -72.44,-6.03 -301.41,-148.05 -364.51,-185.82 -522.39,-312.7 -1004.26,-686.42 -1565.51,-932.18 -324.9,-142.27 -745.01,-279.2 -1109.28,-279.2 -335.65,0 -577.52,19.9 -869.22,155.2 -246.72,114.43 -306.39,174.39 -496.31,333.44 -23.9,20.01 -31.89,23.78 -54.72,46.88 -18.83,19.05 -31.74,31.9 -50.72,50.88 -398.72,398.81 -425.42,678.56 -425.42,1285 0,134.92 31.48,309.26 62.83,419.83 104.6,368.98 280.69,650.64 523.82,941.01 126.97,151.63 276.42,292 430.51,416.18 182.01,146.68 365.77,291.31 560.8,421.36l375.01 234.59c105.42,62.89 204.79,117.64 310.13,180.95 668.57,401.8 1292.63,743.67 1292.63,1636.97 0,320.75 -17.51,525.76 -204.27,761.03 -238.83,300.86 -652.87,469.4 -1005.29,586.45 -536.88,178.31 -1370.54,380.13 -1933.79,462.2 -1217.72,177.43 -2346.69,169.24 -3532.95,-127.96 -207.5,-51.98 -398.76,-104.45 -599.3,-171.14 -291.29,-96.87 -1041.53,-378.96 -1342.9,-579.02 -83.7,-55.57 -147.74,-100.03 -210.47,-179 -137.83,-173.51 -145.01,-405.61 -145.01,-625.54 0,-147.17 17.74,-332.6 51.77,-447.82 56.51,-191.34 140.69,-334.76 263.96,-481.16 53.48,-63.51 117.18,-137.96 183.77,-188.78l204.38 -176.62c22.45,-18.29 41.15,-34.74 64.56,-53.98 390.73,-321.18 900.73,-644.23 1326.08,-926.09 125.14,-82.93 241.89,-175.35 360.53,-266.01 190.85,-145.84 354.34,-305.53 523.04,-476.06l113.89 -131.65c273.7,-313.98 539.94,-788.8 539.94,-1221.27 0,-205.69 -5.38,-334.22 -62.2,-530.54 -104.77,-361.96 -322.51,-662.94 -583.33,-923.82 -18.98,-18.99 -31.89,-31.83 -50.73,-50.88 -54.14,-54.78 -116.72,-97.57 -178.12,-143.62 -207.96,-155.97 -501.25,-273.35 -810.36,-273.35 -232.96,0 -443.48,22.01 -652.91,83.65 -332.4,97.82 -658.19,225.54 -956,398.64l-294.4 162.81c-63.47,38.43 -122.71,71.81 -186.2,110.14 -259.58,156.73 -778.67,473.1 -1056.99,610.95 -83.72,41.46 -157.55,108.47 -192.8,34.82 -15.92,-33.28 -21.7,-84.68 -21.7,-130.83z"/>
   <path class="fil0" d="M12640.87 17374.34c0,177.25 471.94,673.77 619.57,769.03 155.19,100.15 282.58,38.56 423.47,-56l272.89 -201.26c101.67,-79.06 284.15,-252.24 284.15,-393.22 0,-303.42 -672.77,-295.34 -973.79,-296.57l-326.58 20.53c-67.32,9.45 -134.85,19.46 -188.68,39.91 -49.02,18.62 -111.03,61.68 -111.03,117.58z"/>
   <path class="fil0" d="M8534.85 11014.94c0,142.66 8.48,177.83 126.99,177.83 99.27,0 677.28,-261.74 677.28,-541.95 0,-136.74 -89.3,-217.27 -189.52,-284.64 -312.57,-210.08 -614.75,323.26 -614.75,648.76z"/>
   <path class="fil0" d="M17585.02 10735.5c0,103.83 171.76,229.11 255.66,286.23 45.62,31.06 463.95,340.31 463.95,69.42 0,-198.57 -25.8,-267.77 -87.85,-454.07 -106.09,-318.5 -188.8,-357.84 -452.09,-128.33 -51.27,44.7 -179.67,144.57 -179.67,226.75z"/>
  </g>
  <g id="_1583248830960">
   <path class="fil1" d="M28162.8 18541.42l1960.5 0 0 -2359.15 2964.71 0c100.93,0 199.33,-2.53 295.21,-10.1l1503.8 2369.25 2321.31 0 -1904.99 -3002.56c1145.52,-731.72 1904.99,-2016.01 1904.99,-3474.39 0,-2275.89 -1844.43,-4120.32 -4120.32,-4120.32l-4925.21 0 0 1960.49 0 0 0 4317.13 0 0 0 1960.5 0 0 0 2359.15zm1960.5 -8636.78l2964.71 0c1193.45,0 2159.82,966.37 2159.82,2159.83 0,761.99 -396.13,1433.15 -994.12,1816.67 -335.58,217 -736.76,340.63 -1165.7,340.63l-2964.71 0 0 -4317.13zm9905.92 6676.28l5114.45 0 0 1960.5 1965.54 0 0 -6075.77c0,-2497.93 -2026.1,-4521.5 -4524.03,-4521.5 -2497.92,0 -4521.5,2023.57 -4521.5,4521.5l0 6075.77 1965.54 0 0 -1960.5zm2555.96 -6671.23c1412.97,0 2558.49,1145.51 2558.49,2555.96l0 2154.78 -5114.45 0 0 -2154.78c0,-1410.45 1145.52,-2555.96 2555.96,-2555.96zm7324.74 5046.32l4105.18 3585.41 2979.85 0 -6065.68 -5298.64 6065.68 -5298.63 -2979.85 0 -4105.18 3587.93 0 -3587.93 -1960.5 0 0 10597.27 1960.5 0 0 -3585.41zm12449.27 3585.41c2495.4,0 4521.5,-2026.1 4521.5,-4524.03l0 -6073.24 -1965.54 0 0 6073.24c0,1412.97 -1145.52,2558.49 -2555.96,2558.49 -1412.97,0 -2558.49,-1145.52 -2558.49,-2558.49l0 -6073.24 -1965.54 0 0 6073.24c0,2497.93 2026.1,4524.03 4524.03,4524.03zm5361.71 -10597.27l0 10597.27 1960.5 0 0 -7506.4 1400.35 2207.76 1163.18 1829.3 2200.19 3469.34 2321.31 0 0 -10597.27 -1960.5 0 0 7508.92 -1402.87 -2210.29 -1158.13 -1829.29 -2202.72 -3469.34 -360.81 0 0 0 -1960.5 0 0 0 0 0 0 0z"/>
   <path class="fil2" d="M85100.43 16989.68c1034.49,-1034.5 1551.74,-2391.96 1551.74,-3746.9l0 -5298.63 -1960.5 0 0 0 -1667.8 0 0 1960.49 1667.8 0 0 3338.14c0,855.36 -325.48,1708.18 -978.98,2361.68 -1301.95,1301.95 -3416.36,1301.95 -4720.83,-2.52l-1385.22 1387.74c2068.99,2068.99 5424.79,2068.99 7493.79,0l0 0zm8301.19 -408.76l-2770.43 0c-650.97,0 -1178.31,-527.34 -1178.31,-1178.31l-1960.5 0c0,1733.41 1405.4,3138.81 3138.81,3138.81l2770.43 0c1733.41,0 3138.81,-1405.4 3138.81,-3138.81 0,-1733.41 -1405.4,-3138.81 -3138.81,-3138.81l-2770.43 -2.53c-650.97,0 -1178.31,-527.34 -1178.31,-1178.31 0,-650.98 527.34,-1178.32 1178.31,-1178.32l2770.43 0c648.45,0 1178.32,527.34 1178.32,1178.32l1960.49 0c0,-1733.41 -1405.4,-3138.81 -3138.81,-3138.81l-2770.43 0c-1733.41,0 -3138.81,1405.4 -3138.81,3138.81 0,1733.41 1405.4,3138.81 3138.81,3138.81l2770.43 2.52c648.45,0 1178.32,527.34 1178.32,1178.32 0,650.97 -529.87,1178.31 -1178.32,1178.31l0 0z"/>
  </g>
 </g>
</svg>
